<?xml version="1.0" encoding="UTF-8" standalone="no"?>
<!DOCTYPE svg PUBLIC "-//W3C//DTD SVG 1.1//EN"
 "http://www.w3.org/Graphics/SVG/1.1/DTD/svg11.dtd">
<!-- Generated by graphviz version 2.32.0 (20130802.0446)
 -->
<!-- Title: controllers_diagram Pages: 1 -->
<svg width="835pt" height="208pt"
 viewBox="0.00 0.00 835.00 208.00" xmlns="http://www.w3.org/2000/svg" xmlns:xlink="http://www.w3.org/1999/xlink">
<g id="graph0" class="graph" transform="scale(1 1) rotate(0) translate(4 204)">
<title>controllers_diagram</title>
<polygon fill="white" stroke="white" points="-4,5 -4,-204 832,-204 832,5 -4,5"/>
<!-- ApplicationController -->
<g id="node1" class="node"><title>ApplicationController</title>
<path fill="none" stroke="black" d="M12,-46C12,-46 190,-46 190,-46 196,-46 202,-52 202,-58 202,-58 202,-142 202,-142 202,-148 196,-154 190,-154 190,-154 12,-154 12,-154 6,-154 0,-148 0,-142 0,-142 0,-58 0,-58 0,-52 6,-46 12,-46"/>
<text text-anchor="middle" x="101" y="-138.8" font-family="Times New Roman,serif" font-size="14.00">ApplicationController</text>
<polyline fill="none" stroke="black" points="0,-131 202,-131 "/>
<text text-anchor="start" x="8" y="-115.8" font-family="Times New Roman,serif" font-size="14.00">_one_time_conditions_valid_54?</text>
<text text-anchor="start" x="8" y="-100.8" font-family="Times New Roman,serif" font-size="14.00">main_menu</text>
<polyline fill="none" stroke="black" points="0,-93 202,-93 "/>
<polyline fill="none" stroke="black" points="0,-69 202,-69 "/>
<text text-anchor="start" x="8" y="-53.8" font-family="Times New Roman,serif" font-size="14.00">_layout</text>
</g>
<!-- HomeController -->
<g id="node2" class="node"><title>HomeController</title>
<path fill="none" stroke="black" d="M232,-46C232,-46 410,-46 410,-46 416,-46 422,-52 422,-58 422,-58 422,-142 422,-142 422,-148 416,-154 410,-154 410,-154 232,-154 232,-154 226,-154 220,-148 220,-142 220,-142 220,-58 220,-58 220,-52 226,-46 232,-46"/>
<text text-anchor="middle" x="321" y="-138.8" font-family="Times New Roman,serif" font-size="14.00">HomeController</text>
<polyline fill="none" stroke="black" points="220,-131 422,-131 "/>
<text text-anchor="start" x="228" y="-115.8" font-family="Times New Roman,serif" font-size="14.00">_one_time_conditions_valid_56?</text>
<text text-anchor="start" x="228" y="-100.8" font-family="Times New Roman,serif" font-size="14.00">index</text>
<polyline fill="none" stroke="black" points="220,-93 422,-93 "/>
<polyline fill="none" stroke="black" points="220,-69 422,-69 "/>
<text text-anchor="start" x="228" y="-53.8" font-family="Times New Roman,serif" font-size="14.00">_layout</text>
</g>
<!-- ProjectController -->
<g id="node3" class="node"><title>ProjectController</title>
<path fill="none" stroke="black" d="M452.5,-1C452.5,-1 541.5,-1 541.5,-1 547.5,-1 553.5,-7 553.5,-13 553.5,-13 553.5,-187 553.5,-187 553.5,-193 547.5,-199 541.5,-199 541.5,-199 452.5,-199 452.5,-199 446.5,-199 440.5,-193 440.5,-187 440.5,-187 440.5,-13 440.5,-13 440.5,-7 446.5,-1 452.5,-1"/>
<text text-anchor="middle" x="497" y="-183.8" font-family="Times New Roman,serif" font-size="14.00">ProjectController</text>
<polyline fill="none" stroke="black" points="440.5,-176 553.5,-176 "/>
<text text-anchor="start" x="448.5" y="-160.8" font-family="Times New Roman,serif" font-size="14.00">add_users</text>
<text text-anchor="start" x="448.5" y="-145.8" font-family="Times New Roman,serif" font-size="14.00">create</text>
<text text-anchor="start" x="448.5" y="-130.8" font-family="Times New Roman,serif" font-size="14.00">edit</text>
<text text-anchor="start" x="448.5" y="-115.8" font-family="Times New Roman,serif" font-size="14.00">edit_team</text>
<text text-anchor="start" x="448.5" y="-100.8" font-family="Times New Roman,serif" font-size="14.00">index</text>
<text text-anchor="start" x="448.5" y="-85.8" font-family="Times New Roman,serif" font-size="14.00">new</text>
<text text-anchor="start" x="448.5" y="-70.8" font-family="Times New Roman,serif" font-size="14.00">show</text>
<text text-anchor="start" x="448.5" y="-55.8" font-family="Times New Roman,serif" font-size="14.00">update</text>
<polyline fill="none" stroke="black" points="440.5,-48 553.5,-48 "/>
<polyline fill="none" stroke="black" points="440.5,-24 553.5,-24 "/>
<text text-anchor="start" x="448.5" y="-8.8" font-family="Times New Roman,serif" font-size="14.00">_layout</text>
</g>
<!-- StoryBoardController -->
<g id="node4" class="node"><title>StoryBoardController</title>
<path fill="none" stroke="black" d="M584,-1C584,-1 698,-1 698,-1 704,-1 710,-7 710,-13 710,-13 710,-187 710,-187 710,-193 704,-199 698,-199 698,-199 584,-199 584,-199 578,-199 572,-193 572,-187 572,-187 572,-13 572,-13 572,-7 578,-1 584,-1"/>
<text text-anchor="middle" x="641" y="-183.8" font-family="Times New Roman,serif" font-size="14.00">StoryBoardController</text>
<polyline fill="none" stroke="black" points="572,-176 710,-176 "/>
<text text-anchor="start" x="580" y="-160.8" font-family="Times New Roman,serif" font-size="14.00">create</text>
<text text-anchor="start" x="580" y="-145.8" font-family="Times New Roman,serif" font-size="14.00">destroy</text>
<text text-anchor="start" x="580" y="-130.8" font-family="Times New Roman,serif" font-size="14.00">get_form_objects</text>
<text text-anchor="start" x="580" y="-115.8" font-family="Times New Roman,serif" font-size="14.00">get_project_tasks</text>
<text text-anchor="start" x="580" y="-100.8" font-family="Times New Roman,serif" font-size="14.00">index</text>
<text text-anchor="start" x="580" y="-85.8" font-family="Times New Roman,serif" font-size="14.00">reorder</text>
<text text-anchor="start" x="580" y="-70.8" font-family="Times New Roman,serif" font-size="14.00">show</text>
<text text-anchor="start" x="580" y="-55.8" font-family="Times New Roman,serif" font-size="14.00">update</text>
<polyline fill="none" stroke="black" points="572,-48 710,-48 "/>
<polyline fill="none" stroke="black" points="572,-24 710,-24 "/>
<text text-anchor="start" x="580" y="-8.8" font-family="Times New Roman,serif" font-size="14.00">_layout</text>
</g>
<!-- UserController -->
<g id="node5" class="node"><title>UserController</title>
<path fill="none" stroke="black" d="M740.5,-53.5C740.5,-53.5 815.5,-53.5 815.5,-53.5 821.5,-53.5 827.5,-59.5 827.5,-65.5 827.5,-65.5 827.5,-134.5 827.5,-134.5 827.5,-140.5 821.5,-146.5 815.5,-146.5 815.5,-146.5 740.5,-146.5 740.5,-146.5 734.5,-146.5 728.5,-140.5 728.5,-134.5 728.5,-134.5 728.5,-65.5 728.5,-65.5 728.5,-59.5 734.5,-53.5 740.5,-53.5"/>
<text text-anchor="middle" x="778" y="-131.3" font-family="Times New Roman,serif" font-size="14.00">UserController</text>
<polyline fill="none" stroke="black" points="728.5,-123.5 827.5,-123.5 "/>
<text text-anchor="start" x="736.5" y="-108.3" font-family="Times New Roman,serif" font-size="14.00">index</text>
<polyline fill="none" stroke="black" points="728.5,-100.5 827.5,-100.5 "/>
<polyline fill="none" stroke="black" points="728.5,-76.5 827.5,-76.5 "/>
<text text-anchor="start" x="736.5" y="-61.3" font-family="Times New Roman,serif" font-size="14.00">_layout</text>
</g>
</g>
</svg>
