<?xml version="1.0" encoding="UTF-8" standalone="no"?>
<!DOCTYPE svg PUBLIC "-//W3C//DTD SVG 1.1//EN"
 "http://www.w3.org/Graphics/SVG/1.1/DTD/svg11.dtd">
<!-- Generated by graphviz version 2.32.0 (20130802.0446)
 -->
<!-- Title: models_diagram Pages: 1 -->
<svg width="375pt" height="438pt"
 viewBox="0.00 0.00 375.00 438.00" xmlns="http://www.w3.org/2000/svg" xmlns:xlink="http://www.w3.org/1999/xlink">
<g id="graph0" class="graph" transform="scale(1 1) rotate(0) translate(4 434)">
<title>models_diagram</title>
<polygon fill="white" stroke="white" points="-4,5 -4,-434 372,-434 372,5 -4,5"/>
<!-- Project -->
<g id="node1" class="node"><title>Project</title>
<path fill="none" stroke="black" d="M113,-278.5C113,-278.5 221,-278.5 221,-278.5 227,-278.5 233,-284.5 233,-290.5 233,-290.5 233,-417.5 233,-417.5 233,-423.5 227,-429.5 221,-429.5 221,-429.5 113,-429.5 113,-429.5 107,-429.5 101,-423.5 101,-417.5 101,-417.5 101,-290.5 101,-290.5 101,-284.5 107,-278.5 113,-278.5"/>
<text text-anchor="middle" x="167" y="-414.3" font-family="Times New Roman,serif" font-size="14.00">Project</text>
<polyline fill="none" stroke="black" points="101,-406.5 233,-406.5 "/>
<text text-anchor="start" x="109" y="-391.3" font-family="Times New Roman,serif" font-size="14.00">id :integer</text>
<text text-anchor="start" x="109" y="-376.3" font-family="Times New Roman,serif" font-size="14.00">title :string</text>
<text text-anchor="start" x="109" y="-361.3" font-family="Times New Roman,serif" font-size="14.00">owner :string</text>
<text text-anchor="start" x="109" y="-346.3" font-family="Times New Roman,serif" font-size="14.00">description :text</text>
<text text-anchor="start" x="109" y="-331.3" font-family="Times New Roman,serif" font-size="14.00">end_date :date</text>
<text text-anchor="start" x="109" y="-316.3" font-family="Times New Roman,serif" font-size="14.00">start_date :date</text>
<text text-anchor="start" x="109" y="-301.3" font-family="Times New Roman,serif" font-size="14.00">created_at :datetime</text>
<text text-anchor="start" x="109" y="-286.3" font-family="Times New Roman,serif" font-size="14.00">updated_at :datetime</text>
</g>
<!-- StoryBoardObject -->
<g id="node2" class="node"><title>StoryBoardObject</title>
<path fill="none" stroke="black" d="M11.5,-8C11.5,-8 130.5,-8 130.5,-8 136.5,-8 142.5,-14 142.5,-20 142.5,-20 142.5,-222 142.5,-222 142.5,-228 136.5,-234 130.5,-234 130.5,-234 11.5,-234 11.5,-234 5.5,-234 -0.5,-228 -0.5,-222 -0.5,-222 -0.5,-20 -0.5,-20 -0.5,-14 5.5,-8 11.5,-8"/>
<text text-anchor="middle" x="71" y="-218.8" font-family="Times New Roman,serif" font-size="14.00">StoryBoardObject</text>
<polyline fill="none" stroke="black" points="-0.5,-211 142.5,-211 "/>
<text text-anchor="start" x="7.5" y="-195.8" font-family="Times New Roman,serif" font-size="14.00">id :integer</text>
<text text-anchor="start" x="7.5" y="-180.8" font-family="Times New Roman,serif" font-size="14.00">title :string</text>
<text text-anchor="start" x="7.5" y="-165.8" font-family="Times New Roman,serif" font-size="14.00">description :text</text>
<text text-anchor="start" x="7.5" y="-150.8" font-family="Times New Roman,serif" font-size="14.00">type :string</text>
<text text-anchor="start" x="7.5" y="-135.8" font-family="Times New Roman,serif" font-size="14.00">created_at :datetime</text>
<text text-anchor="start" x="7.5" y="-120.8" font-family="Times New Roman,serif" font-size="14.00">updated_at :datetime</text>
<text text-anchor="start" x="7.5" y="-105.8" font-family="Times New Roman,serif" font-size="14.00">project_id :integer</text>
<text text-anchor="start" x="7.5" y="-90.8" font-family="Times New Roman,serif" font-size="14.00">stage :string</text>
<text text-anchor="start" x="7.5" y="-75.8" font-family="Times New Roman,serif" font-size="14.00">order :integer</text>
<text text-anchor="start" x="7.5" y="-60.8" font-family="Times New Roman,serif" font-size="14.00">parent_task_id :integer</text>
<text text-anchor="start" x="7.5" y="-45.8" font-family="Times New Roman,serif" font-size="14.00">status :string</text>
<text text-anchor="start" x="7.5" y="-30.8" font-family="Times New Roman,serif" font-size="14.00">end_date :datetime</text>
<text text-anchor="start" x="7.5" y="-15.8" font-family="Times New Roman,serif" font-size="14.00">start_date :datetime</text>
</g>
<!-- Project&#45;&gt;StoryBoardObject -->
<g id="edge1" class="edge"><title>Project&#45;&gt;StoryBoardObject</title>
<path fill="none" stroke="#0e7644" d="M132.769,-270.632C129.124,-261.861 125.363,-252.811 121.581,-243.71"/>
<ellipse fill="none" stroke="#0e7644" cx="134.429" cy="-274.626" rx="4.00001" ry="4.00001"/>
<polygon fill="#0e7644" stroke="#0e7644" points="121.473,-243.451 121.791,-232.489 119.554,-238.834 117.635,-234.216 117.635,-234.216 117.635,-234.216 119.554,-238.834 113.48,-235.943 121.473,-243.451 121.473,-243.451"/>
</g>
<!-- User -->
<g id="node3" class="node"><title>User</title>
<path fill="none" stroke="black" d="M173,-0.5C173,-0.5 355,-0.5 355,-0.5 361,-0.5 367,-6.5 367,-12.5 367,-12.5 367,-229.5 367,-229.5 367,-235.5 361,-241.5 355,-241.5 355,-241.5 173,-241.5 173,-241.5 167,-241.5 161,-235.5 161,-229.5 161,-229.5 161,-12.5 161,-12.5 161,-6.5 167,-0.5 173,-0.5"/>
<text text-anchor="middle" x="264" y="-226.3" font-family="Times New Roman,serif" font-size="14.00">User</text>
<polyline fill="none" stroke="black" points="161,-218.5 367,-218.5 "/>
<text text-anchor="start" x="169" y="-203.3" font-family="Times New Roman,serif" font-size="14.00">id :integer</text>
<text text-anchor="start" x="169" y="-188.3" font-family="Times New Roman,serif" font-size="14.00">email :string</text>
<text text-anchor="start" x="169" y="-173.3" font-family="Times New Roman,serif" font-size="14.00">encrypted_password :string</text>
<text text-anchor="start" x="169" y="-158.3" font-family="Times New Roman,serif" font-size="14.00">reset_password_token :string</text>
<text text-anchor="start" x="169" y="-143.3" font-family="Times New Roman,serif" font-size="14.00">reset_password_sent_at :datetime</text>
<text text-anchor="start" x="169" y="-128.3" font-family="Times New Roman,serif" font-size="14.00">remember_created_at :datetime</text>
<text text-anchor="start" x="169" y="-113.3" font-family="Times New Roman,serif" font-size="14.00">sign_in_count :integer</text>
<text text-anchor="start" x="169" y="-98.3" font-family="Times New Roman,serif" font-size="14.00">current_sign_in_at :datetime</text>
<text text-anchor="start" x="169" y="-83.3" font-family="Times New Roman,serif" font-size="14.00">last_sign_in_at :datetime</text>
<text text-anchor="start" x="169" y="-68.3" font-family="Times New Roman,serif" font-size="14.00">current_sign_in_ip :string</text>
<text text-anchor="start" x="169" y="-53.3" font-family="Times New Roman,serif" font-size="14.00">last_sign_in_ip :string</text>
<text text-anchor="start" x="169" y="-38.3" font-family="Times New Roman,serif" font-size="14.00">created_at :datetime</text>
<text text-anchor="start" x="169" y="-23.3" font-family="Times New Roman,serif" font-size="14.00">updated_at :datetime</text>
<text text-anchor="start" x="169" y="-8.3" font-family="Times New Roman,serif" font-size="14.00">name :string</text>
</g>
<!-- Project&#45;&gt;User -->
<g id="edge2" class="edge"><title>Project&#45;&gt;User</title>
<path fill="none" stroke="#b3c19e" d="M202.338,-268.846C204.773,-263.046 207.256,-257.133 209.76,-251.17"/>
<polygon fill="#b3c19e" stroke="#b3c19e" points="202.231,-269.1 194.21,-276.578 200.295,-273.71 198.359,-278.32 198.359,-278.32 198.359,-278.32 200.295,-273.71 202.508,-280.062 202.231,-269.1 202.231,-269.1"/>
<polygon fill="#b3c19e" stroke="#b3c19e" points="209.836,-250.989 217.856,-243.511 211.771,-246.379 213.707,-241.769 213.707,-241.769 213.707,-241.769 211.771,-246.379 209.558,-240.027 209.836,-250.989 209.836,-250.989"/>
</g>
</g>
</svg>
