<?xml version="1.0" encoding="utf-8"?>
<svg contentScriptType="text/ecmascript" xmlns:xlink="http://www.w3.org/1999/xlink" zoomAndPan="magnify" contentStyleType="text/css" viewBox="33.5 19.549999999999983 850.0 916.4000000000001" xmlns:cacoo="http://cacoo.com/" preserveAspectRatio="xMidYMin meet" xmlns="http://www.w3.org/2000/svg" version="1.1"><defs><linearGradient x1="0%" xmlns:xlink="http://www.w3.org/1999/xlink" y1="0%" x2="0%" y2="100%" xlink:type="simple" xlink:actuate="onLoad" id="id0" xlink:show="other"><stop stop-opacity="1.0" stop-color="#e2eeff" offset="0%"/><stop stop-opacity="1.0" stop-color="#65a1fb" offset="100%"/></linearGradient><linearGradient x1="0%" xmlns:xlink="http://www.w3.org/1999/xlink" y1="0%" x2="0%" y2="100%" xlink:type="simple" xlink:actuate="onLoad" id="id2" xlink:show="other"><stop stop-opacity="1.0" stop-color="#b6d991" offset="0%"/><stop stop-opacity="1.0" stop-color="#82b749" offset="100%"/></linearGradient><linearGradient x1="0%" xmlns:xlink="http://www.w3.org/1999/xlink" y1="0%" x2="0%" y2="100%" xlink:type="simple" xlink:actuate="onLoad" id="id4" xlink:show="other"><stop stop-opacity="1.0" stop-color="#b6d991" offset="0%"/><stop stop-opacity="1.0" stop-color="#82b749" offset="100%"/></linearGradient><linearGradient x1="0%" xmlns:xlink="http://www.w3.org/1999/xlink" y1="0%" x2="0%" y2="100%" xlink:type="simple" xlink:actuate="onLoad" id="id6" xlink:show="other"><stop stop-opacity="1.0" stop-color="#e2eeff" offset="0%"/><stop stop-opacity="1.0" stop-color="#65a1fb" offset="100%"/></linearGradient><linearGradient x1="0%" xmlns:xlink="http://www.w3.org/1999/xlink" y1="0%" x2="0%" y2="100%" xlink:type="simple" xlink:actuate="onLoad" id="id8" xlink:show="other"><stop stop-opacity="1.0" stop-color="#e2eeff" offset="0%"/><stop stop-opacity="1.0" stop-color="#65a1fb" offset="100%"/></linearGradient><linearGradient x1="0%" xmlns:xlink="http://www.w3.org/1999/xlink" y1="0%" x2="0%" y2="100%" xlink:type="simple" xlink:actuate="onLoad" id="id10" xlink:show="other"><stop stop-opacity="1.0" stop-color="#e2eeff" offset="0%"/><stop stop-opacity="1.0" stop-color="#65a1fb" offset="100%"/></linearGradient><linearGradient x1="0%" xmlns:xlink="http://www.w3.org/1999/xlink" y1="0%" x2="0%" y2="100%" xlink:type="simple" xlink:actuate="onLoad" id="id12" xlink:show="other"><stop stop-opacity="1.0" stop-color="#b6d991" offset="0%"/><stop stop-opacity="1.0" stop-color="#82b749" offset="100%"/></linearGradient><marker refX="14.0" refY="7.0" markerUnits="userSpaceOnUse" orient="auto" id="id14" markerHeight="14.0" viewBox="0 0 14.0 14.0" preserveAspectRatio="xMidYMid meet" markerWidth="14.0" overflow="visible"><path fill="#000000" d="M7.0 3.5 L14.0 7.0 L7.0 10.5z" stroke-width="1.0" stroke-linejoin="round" stroke-linecap="round" stroke="#000000"/></marker><marker refX="14.0" refY="7.0" markerUnits="userSpaceOnUse" orient="auto" id="id15" markerHeight="14.0" viewBox="0 0 14.0 14.0" preserveAspectRatio="xMidYMid meet" markerWidth="14.0" overflow="visible"><path fill="#000000" d="M7.0 3.5 L14.0 7.0 L7.0 10.5z" stroke-width="1.0" stroke-linejoin="round" stroke-linecap="round" stroke="#000000"/></marker><marker refX="14.0" refY="7.0" markerUnits="userSpaceOnUse" orient="auto" id="id16" markerHeight="14.0" viewBox="0 0 14.0 14.0" preserveAspectRatio="xMidYMid meet" markerWidth="14.0" overflow="visible"><path fill="#000000" d="M7.0 3.5 L14.0 7.0 L7.0 10.5z" stroke-width="1.0" stroke-linejoin="round" stroke-linecap="round" stroke="#000000"/></marker><marker refX="0.0" refY="7.0" markerUnits="userSpaceOnUse" orient="auto" id="id17" markerHeight="14.0" viewBox="0 0 14.0 14.0" preserveAspectRatio="xMidYMid meet" markerWidth="14.0" overflow="visible"><path fill="#000000" d="M7.0 3.5 L0 7.0 L7.0 10.5z" stroke-width="1.0" stroke-linejoin="round" stroke-linecap="round" stroke="#000000"/></marker><marker refX="14.0" refY="7.0" markerUnits="userSpaceOnUse" orient="auto" id="id18" markerHeight="14.0" viewBox="0 0 14.0 14.0" preserveAspectRatio="xMidYMid meet" markerWidth="14.0" overflow="visible"><path fill="#000000" d="M7.0 3.5 L14.0 7.0 L7.0 10.5z" stroke-width="1.0" stroke-linejoin="round" stroke-linecap="round" stroke="#000000"/></marker><marker refX="14.0" refY="7.0" markerUnits="userSpaceOnUse" orient="auto" id="id19" markerHeight="14.0" viewBox="0 0 14.0 14.0" preserveAspectRatio="xMidYMid meet" markerWidth="14.0" overflow="visible"><path fill="#000000" d="M7.0 3.5 L14.0 7.0 L7.0 10.5z" stroke-width="1.0" stroke-linejoin="round" stroke-linecap="round" stroke="#000000"/></marker><filter xlink:actuate="onLoad" xlink:type="simple" id="id25" xlink:show="other" filterUnits="userSpaceOnUse" xmlns:xlink="http://www.w3.org/1999/xlink"><feGaussianBlur stdDeviation="3.0" result="blur" in="SourceAlpha"/><feOffset dx="4.0" dy="4.0" result="offsetBlur" in="blur"/><feComponentTransfer result="componentOffsetBlur" in="offsetBlur"><feFuncR type="linear" intercept="0.0" slope="0"/><feFuncG type="linear" intercept="0.0" slope="0"/><feFuncB type="linear" intercept="0.0" slope="0"/><feFuncA type="linear" intercept="0" slope="0.4"/></feComponentTransfer></filter><filter xlink:actuate="onLoad" xlink:type="simple" id="id27" xlink:show="other" filterUnits="userSpaceOnUse" xmlns:xlink="http://www.w3.org/1999/xlink"><feGaussianBlur stdDeviation="3.0" result="blur" in="SourceAlpha"/><feOffset dx="4.0" dy="4.0" result="offsetBlur" in="blur"/><feComponentTransfer result="componentOffsetBlur" in="offsetBlur"><feFuncR type="linear" intercept="0.0" slope="0"/><feFuncG type="linear" intercept="0.0" slope="0"/><feFuncB type="linear" intercept="0.0" slope="0"/><feFuncA type="linear" intercept="0" slope="0.4"/></feComponentTransfer></filter><marker refX="14.0" refY="7.0" markerUnits="userSpaceOnUse" orient="auto" id="id29" markerHeight="14.0" viewBox="0 0 14.0 14.0" preserveAspectRatio="xMidYMid meet" markerWidth="14.0" overflow="visible"><path fill="#000000" d="M7.0 3.5 L14.0 7.0 L7.0 10.5z" stroke-width="1.0" stroke-linejoin="round" stroke-linecap="round" stroke="#000000"/></marker><marker refX="14.0" refY="7.0" markerUnits="userSpaceOnUse" orient="auto" id="id36" markerHeight="14.0" viewBox="0 0 14.0 14.0" preserveAspectRatio="xMidYMid meet" markerWidth="14.0" overflow="visible"><path fill="#000000" d="M7.0 3.5 L14.0 7.0 L7.0 10.5z" stroke-width="1.0" stroke-linejoin="round" stroke-linecap="round" stroke="#000000"/></marker><marker refX="14.0" refY="7.0" markerUnits="userSpaceOnUse" orient="auto" id="id37" markerHeight="14.0" viewBox="0 0 14.0 14.0" preserveAspectRatio="xMidYMid meet" markerWidth="14.0" overflow="visible"><path fill="#000000" d="M7.0 3.5 L14.0 7.0 L7.0 10.5z" stroke-width="1.0" stroke-linejoin="round" stroke-linecap="round" stroke="#000000"/></marker><marker refX="14.0" refY="7.0" markerUnits="userSpaceOnUse" orient="auto" id="id38" markerHeight="14.0" viewBox="0 0 14.0 14.0" preserveAspectRatio="xMidYMid meet" markerWidth="14.0" overflow="visible"><path fill="#000000" d="M7.0 3.5 L14.0 7.0 L7.0 10.5z" stroke-width="1.0" stroke-linejoin="round" stroke-linecap="round" stroke="#000000"/></marker><marker refX="14.0" refY="7.0" markerUnits="userSpaceOnUse" orient="auto" id="id39" markerHeight="14.0" viewBox="0 0 14.0 14.0" preserveAspectRatio="xMidYMid meet" markerWidth="14.0" overflow="visible"><path fill="#000000" d="M7.0 3.5 L14.0 7.0 L7.0 10.5z" stroke-width="1.0" stroke-linejoin="round" stroke-linecap="round" stroke="#000000"/></marker><marker refX="14.0" refY="7.0" markerUnits="userSpaceOnUse" orient="auto" id="id40" markerHeight="14.0" viewBox="0 0 14.0 14.0" preserveAspectRatio="xMidYMid meet" markerWidth="14.0" overflow="visible"><path fill="#000000" d="M7.0 3.5 L14.0 7.0 L7.0 10.5z" stroke-width="1.0" stroke-linejoin="round" stroke-linecap="round" stroke="#000000"/></marker><marker refX="14.0" refY="7.0" markerUnits="userSpaceOnUse" orient="auto" id="id41" markerHeight="14.0" viewBox="0 0 14.0 14.0" preserveAspectRatio="xMidYMid meet" markerWidth="14.0" overflow="visible"><path fill="#000000" d="M7.0 3.5 L14.0 7.0 L7.0 10.5z" stroke-width="1.0" stroke-linejoin="round" stroke-linecap="round" stroke="#000000"/></marker></defs><g><g transform="translate(738.0 617.0)"><use xlink:href="#id26" xlink:actuate="onLoad" xlink:type="simple" xlink:show="embed" xmlns:xlink="http://www.w3.org/1999/xlink" filter="url(#id25)"/></g><g transform="translate(433.0 890.95)"><use xlink:href="#id28" xlink:actuate="onLoad" xlink:type="simple" xlink:show="embed" xmlns:xlink="http://www.w3.org/1999/xlink" filter="url(#id27)"/></g></g><g><g transform="translate(362.0 34.54999999999998)"><path fill="url(#id0)" d="M25.0 50.0 Q20.02719081550855 50.0 15.432914190872756 48.09698831278217 Q10.838637566236956 46.19397662556434 7.322330470336315 42.67766952966369 Q3.806023374435668 39.161362433763045 1.9030116872178304 34.56708580912725 Q0.0 29.97280918449145 0.0 25.000000000000004 Q0.0 20.02719081550855 1.9030116872178304 15.432914190872758 Q3.8060233744356537 10.838637566236963 7.322330470336308 7.322330470336315 Q10.838637566236956 3.806023374435668 15.432914190872742 1.9030116872178375 Q20.027190815508536 0.0 24.999999999999996 0.0 L224.00000000000023 0.0 Q228.9728091844917 0.0 233.5670858091275 1.9030116872178375 Q238.16136243376326 3.806023374435668 241.67766952966392 7.322330470336315 Q245.19397662556457 10.838637566236963 247.0969883127824 15.432914190872758 Q249.00000000000023 20.02719081550855 249.00000000000023 25.000000000000004 Q249.00000000000023 29.97280918449145 247.0969883127824 34.56708580912725 Q245.19397662556457 39.161362433763045 241.67766952966392 42.67766952966369 Q238.16136243376326 46.19397662556434 233.56708580912746 48.09698831278217 Q228.97280918449167 50.0 224.00000000000023 50.0 L25.0 50.0z" stroke-width="1.0" stroke-linejoin="round" stroke="#428eea"/><g transform="translate(15.0 5.0)"><clipPath id="id1"><path d="M0 0 L219.0 0 L219.0 40.0 L0 40.0z"/></clipPath><text font-size="14" clip-path="url(#id1)" text-decoration="none" fill="#000000" font-family="Arial,Arial" font-style="normal" font-weight="normal"><tspan x="4.0" xml:space="preserve" y="25.0" textLength="211.0">1. Analyse functional requirement</tspan></text></g></g><g transform="translate(372.25 146.0)"><path fill="url(#id2)" d="M114.24999999999994 87.99999999999999 L0.0 43.99999999999999 L114.24999999999994 0.0 L228.4999999999999 43.99999999999999 L114.24999999999994 87.99999999999999 L114.24999999999994 87.99999999999999z" stroke-width="1.0" stroke-linejoin="round" stroke="#638933"/><g transform="translate(59.41000000000001 20.295443115234374)"><clipPath id="id3"><path d="M0 0 L109.68000000000002 0 L109.68000000000002 48.39999999999996 L0 48.39999999999996z"/></clipPath><text font-size="14" clip-path="url(#id3)" text-decoration="none" fill="#000000" font-family="Arial,Arial" font-style="normal" font-weight="normal"><tspan x="17.0" xml:space="preserve" y="13.199999999999982" textLength="79.0">2. Does this </tspan><tspan x="17.0" xml:space="preserve" y="29.19999999999998" textLength="80.0">requirement </tspan><tspan x="12.0" xml:space="preserve" y="45.19999999999998" textLength="86.0">need testing?</tspan></text></g></g><g transform="translate(182.25 268.0)"><path fill="url(#id4)" d="M94.99999999999996 108.0 L0.0 54.0 L94.99999999999996 0.0 L189.99999999999991 54.0 L94.99999999999996 108.0 L94.99999999999996 108.0z" stroke-width="1.0" stroke-linejoin="round" stroke="#638933"/><g transform="translate(49.399999999999984 24.908043823242185)"><clipPath id="id5"><path d="M0 0 L91.20000000000002 0 L91.20000000000002 59.400000000000006 L0 59.400000000000006z"/></clipPath><text font-size="14" clip-path="url(#id5)" text-decoration="none" fill="#000000" font-family="Arial,Arial" font-style="normal" font-weight="normal"><tspan x="23.0" xml:space="preserve" y="10.700000000000003" textLength="49.0">3.1 Is it </tspan><tspan x="6.0" xml:space="preserve" y="26.700000000000003" textLength="83.0">evident what </tspan><tspan x="18.0" xml:space="preserve" y="42.7" textLength="59.0">tests are </tspan><tspan x="15.0" xml:space="preserve" y="58.7" textLength="61.0">required?</tspan></text></g></g><g transform="translate(52.0 400.0)"><path fill="url(#id6)" d="M25.0 62.0 Q20.02719081550855 62.0 15.432914190872756 59.6402655078499 Q10.838637566236956 57.28053101569978 7.322330470336315 52.92031021678297 Q3.806023374435668 48.56008941786618 1.9030116872178304 42.86318640331778 Q0.0 37.16628338876939 0.0 31.000000000000004 Q0.0 24.8337166112306 1.9030116872178304 19.13681359668222 Q3.8060233744356537 13.439910582133834 7.322330470336308 9.07968978321703 Q10.838637566236956 4.719468984300228 15.432914190872742 2.359734492150119 Q20.027190815508536 0.0 24.999999999999996 0.0 L157.99999999999994 0.0 Q162.9728091844914 0.0 167.5670858091272 2.359734492150119 Q172.16136243376297 4.719468984300228 175.67766952966363 9.07968978321703 Q179.1939766255643 13.439910582133834 181.09698831278212 19.13681359668222 Q182.99999999999994 24.8337166112306 182.99999999999994 31.000000000000004 Q182.99999999999994 37.16628338876939 181.09698831278212 42.86318640331778 Q179.1939766255643 48.56008941786618 175.67766952966363 52.92031021678297 Q172.16136243376297 57.28053101569978 167.56708580912718 59.6402655078499 Q162.97280918449138 62.0 157.99999999999994 62.0 L25.0 62.0z" stroke-width="1.0" stroke-linejoin="round" stroke="#428eea"/><g transform="translate(15.0 5.0)"><clipPath id="id7"><path d="M0 0 L153.0 0 L153.0 52.0 L0 52.0z"/></clipPath><text font-size="14" clip-path="url(#id7)" text-decoration="none" fill="#000000" font-family="Arial,Arial" font-style="normal" font-weight="normal"><tspan x="29.0" xml:space="preserve" y="15.0" textLength="99.0">4.1 Write some </tspan><tspan x="6.0" xml:space="preserve" y="31.0" textLength="144.0">prototype code for the </tspan><tspan x="28.0" xml:space="preserve" y="47.0" textLength="96.0">new functinality</tspan></text></g></g><g transform="translate(48.5 507.0)"><path fill="url(#id8)" d="M25.0 76.00000000000001 Q20.02719081550855 76.00000000000001 15.432914190872756 73.10742223542891 Q10.838637566236956 70.21484447085778 7.322330470336315 64.8700576850888 Q3.806023374435668 59.525270899319835 1.9030116872178304 52.54197042987344 Q0.0 45.558669960427 0.0 38.00000000000001 Q0.0 30.441330039572993 1.9030116872178304 23.45802957012659 Q3.8060233744356537 16.474729100680182 7.322330470336308 11.129942314911197 Q10.838637566236956 5.785155529142216 15.432914190872742 2.8925777645711133 Q20.027190815508536 0.0 24.999999999999996 0.0 L165.0 0.0 Q169.97280918449147 0.0 174.56708580912726 2.8925777645711133 Q179.16136243376303 5.785155529142216 182.6776695296637 11.129942314911197 Q186.19397662556435 16.474729100680182 188.09698831278217 23.45802957012659 Q190.0 30.441330039572993 190.0 38.00000000000001 Q190.0 45.558669960427 188.09698831278217 52.54197042987344 Q186.19397662556435 59.525270899319835 182.6776695296637 64.8700576850888 Q179.16136243376303 70.21484447085778 174.56708580912724 73.10742223542891 Q169.97280918449144 76.00000000000001 165.0 76.00000000000001 L25.0 76.00000000000001z" stroke-width="1.0" stroke-linejoin="round" stroke="#428eea"/><g transform="translate(15.0 5.0)"><clipPath id="id9"><path d="M0 0 L160.0 0 L160.0 66.0 L0 66.0z"/></clipPath><text font-size="14" clip-path="url(#id9)" text-decoration="none" fill="#000000" font-family="Arial,Arial" font-style="normal" font-weight="normal"><tspan x="8.0" xml:space="preserve" y="14.0" textLength="147.0">5. Throw the prototype </tspan><tspan x="23.0" xml:space="preserve" y="30.0" textLength="117.0">code away once it </tspan><tspan x="4.0" xml:space="preserve" y="46.0" textLength="156.0">becomes evident how to </tspan><tspan x="19.0" xml:space="preserve" y="62.0" textLength="122.0">structure your tests</tspan></text></g></g><g transform="translate(659.5 290.0)"><path fill="url(#id10)" d="M25.0 50.0 Q20.02719081550855 50.0 15.432914190872756 48.09698831278217 Q10.838637566236956 46.19397662556434 7.322330470336315 42.67766952966369 Q3.806023374435668 39.161362433763045 1.9030116872178304 34.56708580912725 Q0.0 29.97280918449145 0.0 25.000000000000004 Q0.0 20.02719081550855 1.9030116872178304 15.432914190872758 Q3.8060233744356537 10.838637566236963 7.322330470336308 7.322330470336315 Q10.838637566236956 3.806023374435668 15.432914190872742 1.9030116872178375 Q20.027190815508536 0.0 24.999999999999996 0.0 L161.99999999999997 0.0 Q166.97280918449144 0.0 171.56708580912724 1.9030116872178375 Q176.161362433763 3.806023374435668 179.67766952966366 7.322330470336315 Q183.19397662556432 10.838637566236963 185.09698831278214 15.432914190872758 Q186.99999999999997 20.02719081550855 186.99999999999997 25.000000000000004 Q186.99999999999997 29.97280918449145 185.09698831278214 34.56708580912725 Q183.1939766255643 39.161362433763045 179.67766952966366 42.67766952966369 Q176.161362433763 46.19397662556434 171.5670858091272 48.09698831278217 Q166.9728091844914 50.0 161.99999999999997 50.0 L25.0 50.0z" stroke-width="1.0" stroke-linejoin="round" stroke="#428eea"/><g transform="translate(15.0 5.0)"><clipPath id="id11"><path d="M0 0 L157.0 0 L157.0 40.0 L0 40.0z"/></clipPath><text font-size="14" clip-path="url(#id11)" text-decoration="none" fill="#000000" font-family="Arial,Arial" font-style="normal" font-weight="normal"><tspan x="10.0" xml:space="preserve" y="17.0" textLength="141.0">3.2 Write the code for </tspan><tspan x="14.0" xml:space="preserve" y="33.0" textLength="128.0">the new functionality</tspan></text></g></g><g transform="translate(662.25 392.0)"><path fill="url(#id12)" d="M90.74999999999996 100.0 L0.0 50.0 L90.74999999999996 0.0 L181.49999999999991 50.0 L90.74999999999996 100.0 L90.74999999999996 100.0z" stroke-width="1.0" stroke-linejoin="round" stroke="#638933"/><g transform="translate(47.18999999999996 23.063003540039062)"><clipPath id="id13"><path d="M0 0 L87.11999999999989 0 L87.11999999999989 55.0 L0 55.0z"/></clipPath><text font-size="14" clip-path="url(#id13)" text-decoration="none" fill="#000000" font-family="Arial,Arial" font-style="normal" font-weight="normal"><tspan x="3.0" xml:space="preserve" y="16.5" textLength="85.0">4.2 Does the </tspan><tspan x="10.0" xml:space="preserve" y="32.5" textLength="71.0">code need </tspan><tspan x="18.0" xml:space="preserve" y="48.5" textLength="50.0">testing?</tspan></text></g></g><path fill="none" marker-end="url(#id14)" d="M486.5000000000001 84.54999999999998 L486.49999999999994 146.0" stroke-width="1.0" stroke-linejoin="round" stroke="#000000"/><path fill="none" marker-end="url(#id15)" d="M372.25 190.0 L277.24999999999994 190.0 L277.24999999999994 268.0" stroke-width="1.0" stroke-linejoin="round" stroke="#000000"/><path fill="none" marker-end="url(#id16)" d="M143.49999999999997 462.0 L143.5 507.0" stroke-width="1.0" stroke-linejoin="round" stroke="#000000"/><path marker-start="url(#id17)" fill="none" d="M143.49999999999997 400.0 L143.49999999999997 322.0 L182.25 322.0" stroke-width="1.0" stroke-linejoin="round" stroke="#000000"/><path fill="none" marker-end="url(#id18)" d="M600.7499999999999 190.0 L753.0 190.0 L753.0 290.0" stroke-width="1.0" stroke-linejoin="round" stroke="#000000"/><path fill="none" marker-end="url(#id19)" d="M753.0 340.0 L753.0 392.0" stroke-width="1.0" stroke-linejoin="round" stroke="#000000"/><path fill="none" d="M662.25 442.0 L517.25 442.0 L517.25 243.0 L277.24999999999994 243.0 L277.24999999999994 268.0" stroke-width="1.0" stroke-linejoin="round" stroke="#000000"/><g transform="translate(315.0 167.0)"><clipPath id="id20"><path d="M0 0 L31.0 0 L31.0 18.0 L0 18.0z"/></clipPath><text font-size="12" clip-path="url(#id20)" text-decoration="none" fill="#000000" font-family="Arial,Arial" font-style="normal" font-weight="bold"><tspan x="2.0" xml:space="preserve" y="14.0" textLength="21.0">Yes</tspan></text></g><g transform="translate(628.5 167.0)"><clipPath id="id21"><path d="M0 0 L31.0 0 L31.0 18.0 L0 18.0z"/></clipPath><text font-size="12" clip-path="url(#id21)" text-decoration="none" fill="#000000" font-family="Arial,Arial" font-style="normal" font-weight="bold"><tspan x="2.0" xml:space="preserve" y="14.0" textLength="15.0">No</tspan></text></g><g transform="translate(308.0 499.0)"><path fill-opacity="1.0" fill="#ffffff" stroke-linejoin="round" stroke-dasharray="3.0 1.0" d="M270.99999999999994 364.99999999999994 L0.0 364.99999999999994 L0.0 0.0 L270.99999999999994 0.0 L270.99999999999994 364.99999999999994z" stroke="#000000" stroke-width="1.0"/><g transform="translate(1.0 1.0)"><clipPath id="id22"><path d="M0 0 L269.0 0 L269.0 363.0 L0 363.0z"/></clipPath><text font-size="12" clip-path="url(#id22)" text-decoration="none" fill="#000000" font-family="Arial,Arial" font-style="normal" font-weight="normal"/></g></g><g transform="translate(585.25 407.0)"><clipPath id="id23"><path d="M0 0 L31.0 0 L31.0 18.0 L0 18.0z"/></clipPath><text font-size="12" clip-path="url(#id23)" text-decoration="none" fill="#000000" font-family="Arial,Arial" font-style="normal" font-weight="bold"><tspan x="2.0" xml:space="preserve" y="14.0" textLength="21.0">Yes</tspan></text></g><g transform="translate(837.5 398.0)"><clipPath id="id24"><path d="M0 0 L31.0 0 L31.0 18.0 L0 18.0z"/></clipPath><text font-size="12" clip-path="url(#id24)" text-decoration="none" fill="#000000" font-family="Arial,Arial" font-style="normal" font-weight="bold"><tspan x="2.0" xml:space="preserve" y="14.0" textLength="15.0">No</tspan></text></g><g transform="translate(738.0 617.0)"><path fill-opacity="1.0" fill="#ffffff" stroke-linejoin="round" id="id26" d="M30.0 15.0 Q30.0 17.98368551069487 28.8581929876693 20.740251485476342 Q27.716385975338603 23.496817460257823 25.606601717798213 25.606601717798213 Q23.496817460257823 27.716385975338603 20.74025148547635 28.8581929876693 Q17.98368551069487 30.0 15.000000000000002 30.0 Q12.01631448930513 30.0 9.259748514523654 28.8581929876693 Q6.503182539742177 27.716385975338603 4.3933982822017885 25.606601717798213 Q2.2836140246613983 23.496817460257823 1.1418070123306985 20.74025148547635 Q0.0 17.98368551069487 0.0 15.000000000000002 Q0.0 12.016314489305136 1.1418070123306965 9.259748514523654 Q2.2836140246613965 6.5031825397421805 4.393398282201785 4.3933982822017885 Q6.503182539742175 2.283614024661402 9.259748514523643 1.1418070123307018 Q12.016314489305124 0.0 14.999999999999996 0.0 Q17.983685510694873 0.0 20.74025148547635 1.1418070123307 Q23.496817460257823 2.2836140246614 25.60660171779821 4.393398282201785 Q27.716385975338596 6.503182539742172 28.858192987669295 9.259748514523643 Q30.0 12.016314489305126 30.0 15.0z" stroke="#000000" stroke-width="1.0"/><path fill="#000000" fill-opacity="1.0" d="M25.0 15.0 Q25.0 16.98912367379658 24.238795325112868 18.8268343236509 Q23.477590650225736 20.664544973505215 22.071067811865476 22.071067811865476 Q20.664544973505215 23.477590650225736 18.8268343236509 24.238795325112868 Q16.98912367379658 25.0 15.0 25.0 Q13.01087632620342 25.0 11.173165676349104 24.238795325112868 Q9.335455026494785 23.477590650225736 7.928932188134525 22.071067811865476 Q6.522409349774264 20.664544973505215 5.761204674887132 18.8268343236509 Q5.0 16.98912367379658 5.0 15.000000000000002 Q5.0 13.010876326203423 5.761204674887132 11.173165676349104 Q6.522409349774264 9.335455026494786 7.928932188134523 7.928932188134525 Q9.335455026494783 6.522409349774268 11.173165676349097 5.761204674887136 Q13.010876326203416 5.0 14.999999999999998 5.0 Q16.98912367379658 5.0 18.8268343236509 5.761204674887134 Q20.664544973505215 6.522409349774266 22.071067811865476 7.928932188134523 Q23.47759065022573 9.335455026494781 24.238795325112864 11.173165676349097 Q25.0 13.010876326203416 25.0 15.0z" stroke-width="1.0" stroke-linejoin="round" stroke="#000000"/></g><g transform="translate(433.0 890.95)"><path fill-opacity="1.0" fill="#ffffff" stroke-linejoin="round" id="id28" d="M30.0 15.0 Q30.0 17.98368551069487 28.8581929876693 20.740251485476342 Q27.716385975338603 23.496817460257823 25.606601717798213 25.606601717798213 Q23.496817460257823 27.716385975338603 20.74025148547635 28.8581929876693 Q17.98368551069487 30.0 15.000000000000002 30.0 Q12.01631448930513 30.0 9.259748514523654 28.8581929876693 Q6.503182539742177 27.716385975338603 4.3933982822017885 25.606601717798213 Q2.2836140246613983 23.496817460257823 1.1418070123306985 20.74025148547635 Q0.0 17.98368551069487 0.0 15.000000000000002 Q0.0 12.016314489305136 1.1418070123306965 9.259748514523654 Q2.2836140246613965 6.5031825397421805 4.393398282201785 4.3933982822017885 Q6.503182539742175 2.283614024661402 9.259748514523643 1.1418070123307018 Q12.016314489305124 0.0 14.999999999999996 0.0 Q17.983685510694873 0.0 20.74025148547635 1.1418070123307 Q23.496817460257823 2.2836140246614 25.60660171779821 4.393398282201785 Q27.716385975338596 6.503182539742172 28.858192987669295 9.259748514523643 Q30.0 12.016314489305126 30.0 15.0z" stroke="#000000" stroke-width="1.0"/><path fill="#000000" fill-opacity="1.0" d="M25.0 15.0 Q25.0 16.98912367379658 24.238795325112868 18.8268343236509 Q23.477590650225736 20.664544973505215 22.071067811865476 22.071067811865476 Q20.664544973505215 23.477590650225736 18.8268343236509 24.238795325112868 Q16.98912367379658 25.0 15.0 25.0 Q13.01087632620342 25.0 11.173165676349104 24.238795325112868 Q9.335455026494785 23.477590650225736 7.928932188134525 22.071067811865476 Q6.522409349774264 20.664544973505215 5.761204674887132 18.8268343236509 Q5.0 16.98912367379658 5.0 15.000000000000002 Q5.0 13.010876326203423 5.761204674887132 11.173165676349104 Q6.522409349774264 9.335455026494786 7.928932188134523 7.928932188134525 Q9.335455026494783 6.522409349774268 11.173165676349097 5.761204674887136 Q13.010876326203416 5.0 14.999999999999998 5.0 Q16.98912367379658 5.0 18.8268343236509 5.761204674887134 Q20.664544973505215 6.522409349774266 22.071067811865476 7.928932188134523 Q23.47759065022573 9.335455026494781 24.238795325112864 11.173165676349097 Q25.0 13.010876326203416 25.0 15.0z" stroke-width="1.0" stroke-linejoin="round" stroke="#000000"/></g><path fill="none" marker-end="url(#id29)" d="M753.0 492.0 L753.0 617.0" stroke-width="1.0" stroke-linejoin="round" stroke="#000000"/><g transform="translate(137.0 290.0)"><clipPath id="id30"><path d="M0 0 L31.0 0 L31.0 18.0 L0 18.0z"/></clipPath><text font-size="12" clip-path="url(#id30)" text-decoration="none" fill="#000000" font-family="Arial,Arial" font-style="normal" font-weight="bold"><tspan x="2.0" xml:space="preserve" y="14.0" textLength="15.0">No</tspan></text></g><g transform="translate(428.0 290.0)"><clipPath id="id31"><path d="M0 0 L31.0 0 L31.0 18.0 L0 18.0z"/></clipPath><text font-size="12" clip-path="url(#id31)" text-decoration="none" fill="#000000" font-family="Arial,Arial" font-style="normal" font-weight="bold"><tspan x="2.0" xml:space="preserve" y="14.0" textLength="21.0">Yes</tspan></text></g><g transform="translate(346.0 600.0)"><path fill="#ffce9f" fill-opacity="1.0" d="M25.0 57.00000000000001 Q20.02719081550855 57.00000000000001 15.432914190872756 54.83056667657168 Q10.838637566236956 52.66113335314335 7.322330470336315 48.652543263816604 Q3.806023374435668 44.64395317448988 1.9030116872178304 39.40647782240506 Q0.0 34.169002470320244 0.0 28.500000000000007 Q0.0 22.830997529679745 1.9030116872178304 17.593522177594945 Q3.8060233744356537 12.356046825510138 7.322330470336308 8.347456736183398 Q10.838637566236956 4.338866646856662 15.432914190872742 2.1694333234283345 Q20.027190815508536 0.0 24.999999999999996 0.0 L179.00000000000003 0.0 Q183.9728091844915 0.0 188.5670858091273 2.1694333234283345 Q193.16136243376306 4.338866646856662 196.67766952966372 8.347456736183398 Q200.19397662556437 12.356046825510138 202.0969883127822 17.593522177594945 Q204.00000000000003 22.830997529679745 204.00000000000003 28.500000000000007 Q204.00000000000003 34.169002470320244 202.0969883127822 39.40647782240506 Q200.19397662556435 44.64395317448988 196.67766952966372 48.652543263816604 Q193.16136243376306 52.66113335314335 188.56708580912726 54.83056667657168 Q183.97280918449147 57.00000000000001 179.00000000000003 57.00000000000001 L25.0 57.00000000000001z" stroke-width="2.0" stroke-linejoin="round" stroke="#ff9d40"/><g transform="translate(15.0 5.0)"><clipPath id="id32"><path d="M0 0 L174.0 0 L174.0 47.0 L0 47.0z"/></clipPath><text font-size="14" clip-path="url(#id32)" text-decoration="none" fill="#000000" font-family="Arial,Arial" font-style="normal" font-weight="normal"><tspan x="2.0" xml:space="preserve" y="20.5" textLength="173.0">7. Run all tests and see the </tspan><tspan x="41.0" xml:space="preserve" y="36.5" textLength="92.0">new test failing</tspan></text></g></g><g transform="translate(346.0 691.0)"><path fill="#ffce9f" fill-opacity="1.0" d="M25.0 50.0 Q20.02719081550855 50.0 15.432914190872756 48.09698831278217 Q10.838637566236956 46.19397662556434 7.322330470336315 42.67766952966369 Q3.806023374435668 39.161362433763045 1.9030116872178304 34.56708580912725 Q0.0 29.97280918449145 0.0 25.000000000000004 Q0.0 20.02719081550855 1.9030116872178304 15.432914190872758 Q3.8060233744356537 10.838637566236963 7.322330470336308 7.322330470336315 Q10.838637566236956 3.806023374435668 15.432914190872742 1.9030116872178375 Q20.027190815508536 0.0 24.999999999999996 0.0 L179.00000000000003 0.0 Q183.9728091844915 0.0 188.5670858091273 1.9030116872178375 Q193.16136243376306 3.806023374435668 196.67766952966372 7.322330470336315 Q200.19397662556437 10.838637566236963 202.0969883127822 15.432914190872758 Q204.00000000000003 20.02719081550855 204.00000000000003 25.000000000000004 Q204.00000000000003 29.97280918449145 202.0969883127822 34.56708580912725 Q200.19397662556435 39.161362433763045 196.67766952966372 42.67766952966369 Q193.16136243376306 46.19397662556434 188.56708580912726 48.09698831278217 Q183.97280918449147 50.0 179.00000000000003 50.0 L25.0 50.0z" stroke-width="2.0" stroke-linejoin="round" stroke="#ff9d40"/><g transform="translate(15.0 5.0)"><clipPath id="id33"><path d="M0 0 L174.0 0 L174.0 40.0 L0 40.0z"/></clipPath><text font-size="14" clip-path="url(#id33)" text-decoration="none" fill="#000000" font-family="Arial,Arial" font-style="normal" font-weight="normal"><tspan x="7.0" xml:space="preserve" y="17.0" textLength="162.0">8. Write just enough code </tspan><tspan x="20.0" xml:space="preserve" y="33.0" textLength="133.0">to make the test pass</tspan></text></g></g><g transform="translate(346.0 771.95)"><path fill="#ffce9f" fill-opacity="1.0" d="M25.0 61.0 Q20.02719081550855 61.0 15.432914190872756 58.67832574159424 Q10.838637566236956 56.3566514831885 7.322330470336315 52.06675682618969 Q3.806023374435668 47.77686216919091 1.9030116872178304 42.17184468713523 Q0.0 36.56682720507955 0.0 30.500000000000004 Q0.0 24.433172794920424 1.9030116872178304 18.82815531286476 Q3.8060233744356537 13.223137830809092 7.322330470336308 8.9332431738103 Q10.838637566236956 4.643348516811514 15.432914190872742 2.321674258405761 Q20.027190815508536 0.0 24.999999999999996 0.0 L178.99999999999991 0.0 Q183.97280918449138 0.0 188.56708580912718 2.321674258405761 Q193.16136243376295 4.643348516811514 196.6776695296636 8.9332431738103 Q200.19397662556426 13.223137830809092 202.0969883127821 18.82815531286476 Q203.99999999999991 24.433172794920424 203.99999999999991 30.500000000000004 Q203.99999999999991 36.56682720507955 202.0969883127821 42.17184468713523 Q200.19397662556423 47.77686216919091 196.6776695296636 52.06675682618969 Q193.16136243376295 56.3566514831885 188.56708580912715 58.67832574159424 Q183.97280918449135 61.0 178.99999999999991 61.0 L25.0 61.0z" stroke-width="2.0" stroke-linejoin="round" stroke="#ff9d40"/><g transform="translate(15.0 5.0)"><clipPath id="id34"><path d="M0 0 L174.0 0 L174.0 51.0 L0 51.0z"/></clipPath><text font-size="14" clip-path="url(#id34)" text-decoration="none" fill="#000000" font-family="Arial,Arial" font-style="normal" font-weight="normal"><tspan x="6.0" xml:space="preserve" y="14.5" textLength="164.0">9. Refactor your code and </tspan><tspan x="5.0" xml:space="preserve" y="30.5" textLength="166.0">check that all the tests are </tspan><tspan x="51.0" xml:space="preserve" y="46.5" textLength="72.0">still passing</tspan></text></g></g><g transform="translate(346.0 520.0)"><path fill="#ffce9f" fill-opacity="1.0" d="M25.0 50.0 Q20.02719081550855 50.0 15.432914190872756 48.09698831278217 Q10.838637566236956 46.19397662556434 7.322330470336315 42.67766952966369 Q3.806023374435668 39.161362433763045 1.9030116872178304 34.56708580912725 Q0.0 29.97280918449145 0.0 25.000000000000004 Q0.0 20.02719081550855 1.9030116872178304 15.432914190872758 Q3.8060233744356537 10.838637566236963 7.322330470336308 7.322330470336315 Q10.838637566236956 3.806023374435668 15.432914190872742 1.9030116872178375 Q20.027190815508536 0.0 24.999999999999996 0.0 L179.00000000000006 0.0 Q183.97280918449152 0.0 188.56708580912732 1.9030116872178375 Q193.1613624337631 3.806023374435668 196.67766952966375 7.322330470336315 Q200.1939766255644 10.838637566236963 202.09698831278223 15.432914190872758 Q204.00000000000006 20.02719081550855 204.00000000000006 25.000000000000004 Q204.00000000000006 29.97280918449145 202.09698831278223 34.56708580912725 Q200.1939766255644 39.161362433763045 196.67766952966375 42.67766952966369 Q193.1613624337631 46.19397662556434 188.5670858091273 48.09698831278217 Q183.9728091844915 50.0 179.00000000000006 50.0 L25.0 50.0z" stroke-width="2.0" stroke-linejoin="round" stroke="#ff9d40"/><g transform="translate(15.0 5.0)"><clipPath id="id35"><path d="M0 0 L174.0 0 L174.0 40.0 L0 40.0z"/></clipPath><text font-size="14" clip-path="url(#id35)" text-decoration="none" fill="#000000" font-family="Arial,Arial" font-style="normal" font-weight="normal"><tspan x="19.0" xml:space="preserve" y="17.0" textLength="139.0">6. Write a test for new </tspan><tspan x="48.0" xml:space="preserve" y="33.0" textLength="78.0">Functionality</tspan></text></g></g><path fill="none" marker-end="url(#id36)" d="M372.2499999999999 322.0 L448.0 322.0 L448.0 520.0" stroke-width="1.0" stroke-linejoin="round" stroke="#000000"/><path fill="none" marker-end="url(#id37)" d="M238.5 545.0 L346.0 545.0" stroke-width="1.0" stroke-linejoin="round" stroke="#000000"/><path fill="none" marker-end="url(#id38)" d="M448.0 570.0 L448.0 600.0" stroke-width="1.0" stroke-linejoin="round" stroke="#000000"/><path fill="none" marker-end="url(#id39)" d="M448.0 657.0 L448.0 691.0" stroke-width="1.0" stroke-linejoin="round" stroke="#000000"/><path fill="none" marker-end="url(#id40)" d="M448.0 741.0 L447.99999999999994 771.95" stroke-width="1.0" stroke-linejoin="round" stroke="#000000"/><path fill="none" marker-end="url(#id41)" d="M447.99999999999994 832.95 L448.0 890.95" stroke-width="1.0" stroke-linejoin="round" stroke="#000000"/><g transform="translate(453.0 479.0)"><clipPath id="id42"><path d="M0 0 L167.5 0 L167.5 27.0 L0 27.0z"/></clipPath><text font-size="12" clip-path="url(#id42)" text-decoration="none" fill="#000000" font-family="Arial,Arial" font-style="normal" font-weight="normal"><tspan x="2.0" xml:space="preserve" y="13.0" textLength="149.0">Start standard TDD Process</tspan></text></g></g></svg>